<mxfile host="app.diagrams.net" modified="2021-08-17T10:10:47.954Z" agent="5.0 (Windows NT 10.0; Win64; x64) AppleWebKit/537.36 (KHTML, like Gecko) Chrome/92.0.4515.131 Safari/537.36" etag="C2QJ5T9RJpa4NOvpwP7c" version="14.9.6" type="github" pages="5">
  <diagram id="C5RBs43oDa-KdzZeNtuy" name="Page-1">
    <mxGraphModel dx="1041" dy="429" grid="1" gridSize="10" guides="1" tooltips="1" connect="1" arrows="1" fold="1" page="1" pageScale="1" pageWidth="827" pageHeight="1169" math="0" shadow="0">
      <root>
        <mxCell id="WIyWlLk6GJQsqaUBKTNV-0" />
        <mxCell id="WIyWlLk6GJQsqaUBKTNV-1" parent="WIyWlLk6GJQsqaUBKTNV-0" />
        <mxCell id="jSx6AC2ASoDBTA4UZAXg-13" value="" style="edgeStyle=orthogonalEdgeStyle;rounded=0;orthogonalLoop=1;jettySize=auto;html=1;" parent="WIyWlLk6GJQsqaUBKTNV-1" source="jSx6AC2ASoDBTA4UZAXg-3" target="jSx6AC2ASoDBTA4UZAXg-4" edge="1">
          <mxGeometry relative="1" as="geometry" />
        </mxCell>
        <mxCell id="jSx6AC2ASoDBTA4UZAXg-3" value="开始" style="strokeWidth=2;html=1;shape=mxgraph.flowchart.terminator;whiteSpace=wrap;" parent="WIyWlLk6GJQsqaUBKTNV-1" vertex="1">
          <mxGeometry x="350" y="100" width="100" height="60" as="geometry" />
        </mxCell>
        <mxCell id="jSx6AC2ASoDBTA4UZAXg-19" value="" style="edgeStyle=orthogonalEdgeStyle;rounded=0;orthogonalLoop=1;jettySize=auto;html=1;" parent="WIyWlLk6GJQsqaUBKTNV-1" source="jSx6AC2ASoDBTA4UZAXg-4" target="jSx6AC2ASoDBTA4UZAXg-5" edge="1">
          <mxGeometry relative="1" as="geometry" />
        </mxCell>
        <mxCell id="jSx6AC2ASoDBTA4UZAXg-4" value="" style="verticalLabelPosition=bottom;verticalAlign=top;html=1;shape=process;whiteSpace=wrap;rounded=1;size=0.14;arcSize=6;" parent="WIyWlLk6GJQsqaUBKTNV-1" vertex="1">
          <mxGeometry x="350" y="200" width="100" height="60" as="geometry" />
        </mxCell>
        <mxCell id="jSx6AC2ASoDBTA4UZAXg-23" value="" style="edgeStyle=orthogonalEdgeStyle;rounded=0;orthogonalLoop=1;jettySize=auto;html=1;" parent="WIyWlLk6GJQsqaUBKTNV-1" source="jSx6AC2ASoDBTA4UZAXg-5" target="jSx6AC2ASoDBTA4UZAXg-9" edge="1">
          <mxGeometry relative="1" as="geometry" />
        </mxCell>
        <mxCell id="jSx6AC2ASoDBTA4UZAXg-5" value="" style="verticalLabelPosition=bottom;verticalAlign=top;html=1;shape=process;whiteSpace=wrap;rounded=1;size=0.14;arcSize=6;" parent="WIyWlLk6GJQsqaUBKTNV-1" vertex="1">
          <mxGeometry x="350" y="320" width="100" height="60" as="geometry" />
        </mxCell>
        <mxCell id="jSx6AC2ASoDBTA4UZAXg-6" value="分析公寓费用统计表" style="text;html=1;strokeColor=none;fillColor=none;align=center;verticalAlign=middle;whiteSpace=wrap;rounded=0;" parent="WIyWlLk6GJQsqaUBKTNV-1" vertex="1">
          <mxGeometry x="365" y="230" width="70" as="geometry" />
        </mxCell>
        <mxCell id="jSx6AC2ASoDBTA4UZAXg-7" value="采集每个员工的费用信息" style="text;html=1;strokeColor=none;fillColor=none;align=center;verticalAlign=middle;whiteSpace=wrap;rounded=0;" parent="WIyWlLk6GJQsqaUBKTNV-1" vertex="1">
          <mxGeometry x="365" y="335" width="70" height="30" as="geometry" />
        </mxCell>
        <mxCell id="jSx6AC2ASoDBTA4UZAXg-25" value="" style="edgeStyle=orthogonalEdgeStyle;rounded=0;orthogonalLoop=1;jettySize=auto;html=1;" parent="WIyWlLk6GJQsqaUBKTNV-1" source="jSx6AC2ASoDBTA4UZAXg-9" target="jSx6AC2ASoDBTA4UZAXg-12" edge="1">
          <mxGeometry relative="1" as="geometry" />
        </mxCell>
        <mxCell id="jSx6AC2ASoDBTA4UZAXg-9" value="" style="verticalLabelPosition=bottom;verticalAlign=top;html=1;shape=process;whiteSpace=wrap;rounded=1;size=0.14;arcSize=6;" parent="WIyWlLk6GJQsqaUBKTNV-1" vertex="1">
          <mxGeometry x="350" y="440" width="100" height="60" as="geometry" />
        </mxCell>
        <mxCell id="jSx6AC2ASoDBTA4UZAXg-10" value="通过钉钉分别发送非每一个员工" style="text;html=1;strokeColor=none;fillColor=none;align=center;verticalAlign=middle;whiteSpace=wrap;rounded=0;" parent="WIyWlLk6GJQsqaUBKTNV-1" vertex="1">
          <mxGeometry x="365" y="460" width="70" height="30" as="geometry" />
        </mxCell>
        <mxCell id="jSx6AC2ASoDBTA4UZAXg-12" value="结束" style="strokeWidth=2;html=1;shape=mxgraph.flowchart.terminator;whiteSpace=wrap;" parent="WIyWlLk6GJQsqaUBKTNV-1" vertex="1">
          <mxGeometry x="350" y="555" width="100" height="60" as="geometry" />
        </mxCell>
      </root>
    </mxGraphModel>
  </diagram>
  <diagram id="FItEr-Ml95VGZnuIiwO8" name="Halaman-2">
    <mxGraphModel dx="2430" dy="1000" grid="1" gridSize="10" guides="1" tooltips="1" connect="1" arrows="1" fold="1" page="1" pageScale="1" pageWidth="827" pageHeight="1169" math="0" shadow="0">
      <root>
        <mxCell id="IsieNOjHRWeipkr4BP3H-0" />
        <mxCell id="IsieNOjHRWeipkr4BP3H-1" parent="IsieNOjHRWeipkr4BP3H-0" />
        <mxCell id="iqkVONf8w0vIgc4fsMqp-0" value="开始" style="strokeWidth=2;html=1;shape=mxgraph.flowchart.terminator;whiteSpace=wrap;" parent="IsieNOjHRWeipkr4BP3H-1" vertex="1">
          <mxGeometry x="380" y="40" width="100" height="60" as="geometry" />
        </mxCell>
        <mxCell id="iqkVONf8w0vIgc4fsMqp-9" value="" style="edgeStyle=orthogonalEdgeStyle;rounded=0;orthogonalLoop=1;jettySize=auto;html=1;" parent="IsieNOjHRWeipkr4BP3H-1" source="iqkVONf8w0vIgc4fsMqp-2" target="iqkVONf8w0vIgc4fsMqp-6" edge="1">
          <mxGeometry relative="1" as="geometry" />
        </mxCell>
        <mxCell id="iqkVONf8w0vIgc4fsMqp-2" value="读取Excel中所有房间的数据并进行采集分析" style="rounded=0;whiteSpace=wrap;html=1;" parent="IsieNOjHRWeipkr4BP3H-1" vertex="1">
          <mxGeometry x="350" y="440" width="120" height="60" as="geometry" />
        </mxCell>
        <mxCell id="iqkVONf8w0vIgc4fsMqp-10" value="" style="edgeStyle=orthogonalEdgeStyle;rounded=0;orthogonalLoop=1;jettySize=auto;html=1;" parent="IsieNOjHRWeipkr4BP3H-1" source="iqkVONf8w0vIgc4fsMqp-6" target="iqkVONf8w0vIgc4fsMqp-7" edge="1">
          <mxGeometry relative="1" as="geometry" />
        </mxCell>
        <mxCell id="iqkVONf8w0vIgc4fsMqp-6" value="对采集的数据进行过滤及转化为列表形式" style="rounded=0;whiteSpace=wrap;html=1;" parent="IsieNOjHRWeipkr4BP3H-1" vertex="1">
          <mxGeometry x="350" y="550" width="120" height="60" as="geometry" />
        </mxCell>
        <mxCell id="iqkVONf8w0vIgc4fsMqp-7" value="读取Excel中“费用明细”表获取&#39;房间号&#39;,&#39;银城&#39;,&#39;兴智&#39;,&#39;扣款金额&#39;内容" style="rounded=0;whiteSpace=wrap;html=1;" parent="IsieNOjHRWeipkr4BP3H-1" vertex="1">
          <mxGeometry x="350" y="650" width="120" height="60" as="geometry" />
        </mxCell>
        <mxCell id="iqkVONf8w0vIgc4fsMqp-11" value="Main函数" style="rounded=0;whiteSpace=wrap;html=1;" parent="IsieNOjHRWeipkr4BP3H-1" vertex="1">
          <mxGeometry x="370" y="150" width="120" height="60" as="geometry" />
        </mxCell>
        <mxCell id="iqkVONf8w0vIgc4fsMqp-14" value="" style="edgeStyle=orthogonalEdgeStyle;rounded=0;orthogonalLoop=1;jettySize=auto;html=1;" parent="IsieNOjHRWeipkr4BP3H-1" source="iqkVONf8w0vIgc4fsMqp-12" target="iqkVONf8w0vIgc4fsMqp-13" edge="1">
          <mxGeometry relative="1" as="geometry" />
        </mxCell>
        <mxCell id="iqkVONf8w0vIgc4fsMqp-12" value="输入文件名" style="rounded=0;whiteSpace=wrap;html=1;" parent="IsieNOjHRWeipkr4BP3H-1" vertex="1">
          <mxGeometry x="30" y="445" width="120" height="60" as="geometry" />
        </mxCell>
        <mxCell id="iqkVONf8w0vIgc4fsMqp-13" value="实现文件名与后缀名的拼接" style="rounded=0;whiteSpace=wrap;html=1;" parent="IsieNOjHRWeipkr4BP3H-1" vertex="1">
          <mxGeometry x="30" y="545" width="120" height="60" as="geometry" />
        </mxCell>
        <mxCell id="iqkVONf8w0vIgc4fsMqp-15" value="创建表格" style="rounded=0;whiteSpace=wrap;html=1;" parent="IsieNOjHRWeipkr4BP3H-1" vertex="1">
          <mxGeometry x="30" y="665" width="120" height="60" as="geometry" />
        </mxCell>
      </root>
    </mxGraphModel>
  </diagram>
  <diagram id="ldjQCcyIUL-B29vC_BWN" name="Halaman-3">
    <mxGraphModel dx="1215" dy="500" grid="1" gridSize="10" guides="1" tooltips="1" connect="1" arrows="1" fold="1" page="1" pageScale="1" pageWidth="827" pageHeight="1169" math="0" shadow="0">
      <root>
        <mxCell id="J86D7bzGNm8F8wSNdWVc-0" />
        <mxCell id="J86D7bzGNm8F8wSNdWVc-1" parent="J86D7bzGNm8F8wSNdWVc-0" />
        <mxCell id="uCkkINi1l-X-rjw8zr-g-11" value="" style="edgeStyle=orthogonalEdgeStyle;rounded=0;orthogonalLoop=1;jettySize=auto;html=1;" edge="1" parent="J86D7bzGNm8F8wSNdWVc-1" source="uCkkINi1l-X-rjw8zr-g-0" target="uCkkINi1l-X-rjw8zr-g-4">
          <mxGeometry relative="1" as="geometry" />
        </mxCell>
        <mxCell id="uCkkINi1l-X-rjw8zr-g-0" value="&lt;font style=&quot;font-size: 14px&quot;&gt;开始&lt;/font&gt;" style="strokeWidth=2;html=1;shape=mxgraph.flowchart.terminator;whiteSpace=wrap;" vertex="1" parent="J86D7bzGNm8F8wSNdWVc-1">
          <mxGeometry x="360" y="60" width="80" height="50" as="geometry" />
        </mxCell>
        <mxCell id="uCkkINi1l-X-rjw8zr-g-12" value="" style="edgeStyle=orthogonalEdgeStyle;rounded=0;orthogonalLoop=1;jettySize=auto;html=1;" edge="1" parent="J86D7bzGNm8F8wSNdWVc-1" source="uCkkINi1l-X-rjw8zr-g-4" target="uCkkINi1l-X-rjw8zr-g-7">
          <mxGeometry relative="1" as="geometry" />
        </mxCell>
        <mxCell id="uCkkINi1l-X-rjw8zr-g-4" value="输入文件名" style="rounded=0;whiteSpace=wrap;html=1;" vertex="1" parent="J86D7bzGNm8F8wSNdWVc-1">
          <mxGeometry x="349.63" y="150" width="100.25" height="40" as="geometry" />
        </mxCell>
        <mxCell id="uCkkINi1l-X-rjw8zr-g-6" value="创建表格" style="rounded=0;whiteSpace=wrap;html=1;" vertex="1" parent="J86D7bzGNm8F8wSNdWVc-1">
          <mxGeometry x="349.88" y="230" width="100.25" height="40" as="geometry" />
        </mxCell>
        <mxCell id="uCkkINi1l-X-rjw8zr-g-10" style="edgeStyle=orthogonalEdgeStyle;rounded=0;orthogonalLoop=1;jettySize=auto;html=1;exitX=1;exitY=0.5;exitDx=0;exitDy=0;entryX=0.5;entryY=0;entryDx=0;entryDy=0;" edge="1" parent="J86D7bzGNm8F8wSNdWVc-1" source="uCkkINi1l-X-rjw8zr-g-7" target="uCkkINi1l-X-rjw8zr-g-9">
          <mxGeometry relative="1" as="geometry" />
        </mxCell>
        <mxCell id="uCkkINi1l-X-rjw8zr-g-19" value="" style="edgeStyle=orthogonalEdgeStyle;rounded=0;orthogonalLoop=1;jettySize=auto;html=1;" edge="1" parent="J86D7bzGNm8F8wSNdWVc-1" source="uCkkINi1l-X-rjw8zr-g-7" target="uCkkINi1l-X-rjw8zr-g-13">
          <mxGeometry relative="1" as="geometry" />
        </mxCell>
        <mxCell id="uCkkINi1l-X-rjw8zr-g-7" value="文件名是否存在？" style="rhombus;whiteSpace=wrap;html=1;" vertex="1" parent="J86D7bzGNm8F8wSNdWVc-1">
          <mxGeometry x="339.51" y="300" width="120.49" height="60" as="geometry" />
        </mxCell>
        <mxCell id="uCkkINi1l-X-rjw8zr-g-9" value="输入有误" style="rounded=0;whiteSpace=wrap;html=1;" vertex="1" parent="J86D7bzGNm8F8wSNdWVc-1">
          <mxGeometry x="509.75" y="420" width="100.25" height="40" as="geometry" />
        </mxCell>
        <mxCell id="uCkkINi1l-X-rjw8zr-g-20" value="" style="edgeStyle=orthogonalEdgeStyle;rounded=0;orthogonalLoop=1;jettySize=auto;html=1;" edge="1" parent="J86D7bzGNm8F8wSNdWVc-1" source="uCkkINi1l-X-rjw8zr-g-13" target="uCkkINi1l-X-rjw8zr-g-14">
          <mxGeometry relative="1" as="geometry" />
        </mxCell>
        <mxCell id="uCkkINi1l-X-rjw8zr-g-13" value="打开表格文件读取数据并分析，获取员工的房间号，姓名，入住时间" style="rounded=0;whiteSpace=wrap;html=1;" vertex="1" parent="J86D7bzGNm8F8wSNdWVc-1">
          <mxGeometry x="344.76" y="410" width="109.99" height="80" as="geometry" />
        </mxCell>
        <mxCell id="uCkkINi1l-X-rjw8zr-g-21" value="" style="edgeStyle=orthogonalEdgeStyle;rounded=0;orthogonalLoop=1;jettySize=auto;html=1;" edge="1" parent="J86D7bzGNm8F8wSNdWVc-1" source="uCkkINi1l-X-rjw8zr-g-14" target="uCkkINi1l-X-rjw8zr-g-16">
          <mxGeometry relative="1" as="geometry" />
        </mxCell>
        <mxCell id="uCkkINi1l-X-rjw8zr-g-14" value="打开表格文件读取数据并分析，获取员工的房间号，姓名，入住时间" style="rounded=0;whiteSpace=wrap;html=1;" vertex="1" parent="J86D7bzGNm8F8wSNdWVc-1">
          <mxGeometry x="344.76" y="544.5" width="109.99" height="80" as="geometry" />
        </mxCell>
        <mxCell id="uCkkINi1l-X-rjw8zr-g-22" value="" style="edgeStyle=orthogonalEdgeStyle;rounded=0;orthogonalLoop=1;jettySize=auto;html=1;" edge="1" parent="J86D7bzGNm8F8wSNdWVc-1" source="uCkkINi1l-X-rjw8zr-g-16" target="uCkkINi1l-X-rjw8zr-g-17">
          <mxGeometry relative="1" as="geometry" />
        </mxCell>
        <mxCell id="uCkkINi1l-X-rjw8zr-g-23" style="edgeStyle=orthogonalEdgeStyle;rounded=0;orthogonalLoop=1;jettySize=auto;html=1;entryX=0.5;entryY=0;entryDx=0;entryDy=0;" edge="1" parent="J86D7bzGNm8F8wSNdWVc-1" source="uCkkINi1l-X-rjw8zr-g-16" target="uCkkINi1l-X-rjw8zr-g-18">
          <mxGeometry relative="1" as="geometry" />
        </mxCell>
        <mxCell id="uCkkINi1l-X-rjw8zr-g-16" value="遍历房间号，查看房间号是否相同？" style="rhombus;whiteSpace=wrap;html=1;" vertex="1" parent="J86D7bzGNm8F8wSNdWVc-1">
          <mxGeometry x="324.75" y="680" width="150" height="80" as="geometry" />
        </mxCell>
        <mxCell id="uCkkINi1l-X-rjw8zr-g-25" value="" style="edgeStyle=orthogonalEdgeStyle;rounded=0;orthogonalLoop=1;jettySize=auto;html=1;" edge="1" parent="J86D7bzGNm8F8wSNdWVc-1" source="uCkkINi1l-X-rjw8zr-g-17" target="uCkkINi1l-X-rjw8zr-g-24">
          <mxGeometry relative="1" as="geometry" />
        </mxCell>
        <mxCell id="uCkkINi1l-X-rjw8zr-g-17" value="进行姓名及入住时间的拼接" style="rounded=0;whiteSpace=wrap;html=1;" vertex="1" parent="J86D7bzGNm8F8wSNdWVc-1">
          <mxGeometry x="349.63" y="840" width="100.25" height="40" as="geometry" />
        </mxCell>
        <mxCell id="uCkkINi1l-X-rjw8zr-g-18" value="设置变量存储房间号，姓名，注入时间" style="rounded=0;whiteSpace=wrap;html=1;" vertex="1" parent="J86D7bzGNm8F8wSNdWVc-1">
          <mxGeometry x="520" y="820" width="110" height="70" as="geometry" />
        </mxCell>
        <mxCell id="B_eBeXuSlpfEg5fjzPfb-5" value="" style="edgeStyle=orthogonalEdgeStyle;rounded=0;orthogonalLoop=1;jettySize=auto;html=1;" edge="1" parent="J86D7bzGNm8F8wSNdWVc-1" source="uCkkINi1l-X-rjw8zr-g-24" target="B_eBeXuSlpfEg5fjzPfb-0">
          <mxGeometry relative="1" as="geometry" />
        </mxCell>
        <mxCell id="uCkkINi1l-X-rjw8zr-g-24" value="筛选完相同的房间号，进行信息的录入，打印列表，进行备注" style="rounded=0;whiteSpace=wrap;html=1;" vertex="1" parent="J86D7bzGNm8F8wSNdWVc-1">
          <mxGeometry x="344.75" y="940" width="110" height="70" as="geometry" />
        </mxCell>
        <mxCell id="B_eBeXuSlpfEg5fjzPfb-8" value="" style="edgeStyle=orthogonalEdgeStyle;rounded=0;orthogonalLoop=1;jettySize=auto;html=1;" edge="1" parent="J86D7bzGNm8F8wSNdWVc-1" source="B_eBeXuSlpfEg5fjzPfb-0" target="B_eBeXuSlpfEg5fjzPfb-6">
          <mxGeometry relative="1" as="geometry" />
        </mxCell>
        <mxCell id="B_eBeXuSlpfEg5fjzPfb-0" value="读取文件，获取内容" style="rounded=0;whiteSpace=wrap;html=1;" vertex="1" parent="J86D7bzGNm8F8wSNdWVc-1">
          <mxGeometry x="344.26" y="1080" width="110.49" height="50" as="geometry" />
        </mxCell>
        <mxCell id="B_eBeXuSlpfEg5fjzPfb-1" value="NO" style="text;html=1;strokeColor=none;fillColor=none;align=center;verticalAlign=middle;whiteSpace=wrap;rounded=0;" vertex="1" parent="J86D7bzGNm8F8wSNdWVc-1">
          <mxGeometry x="490" y="300" width="40" height="20" as="geometry" />
        </mxCell>
        <mxCell id="B_eBeXuSlpfEg5fjzPfb-2" value="YES" style="text;html=1;strokeColor=none;fillColor=none;align=center;verticalAlign=middle;whiteSpace=wrap;rounded=0;" vertex="1" parent="J86D7bzGNm8F8wSNdWVc-1">
          <mxGeometry x="410" y="370" width="40" height="20" as="geometry" />
        </mxCell>
        <mxCell id="B_eBeXuSlpfEg5fjzPfb-3" value="YES" style="text;html=1;strokeColor=none;fillColor=none;align=center;verticalAlign=middle;whiteSpace=wrap;rounded=0;" vertex="1" parent="J86D7bzGNm8F8wSNdWVc-1">
          <mxGeometry x="400" y="780" width="40" height="20" as="geometry" />
        </mxCell>
        <mxCell id="B_eBeXuSlpfEg5fjzPfb-4" value="NO" style="text;html=1;strokeColor=none;fillColor=none;align=center;verticalAlign=middle;whiteSpace=wrap;rounded=0;" vertex="1" parent="J86D7bzGNm8F8wSNdWVc-1">
          <mxGeometry x="509.75" y="700" width="40" height="20" as="geometry" />
        </mxCell>
        <mxCell id="B_eBeXuSlpfEg5fjzPfb-10" value="" style="edgeStyle=orthogonalEdgeStyle;rounded=0;orthogonalLoop=1;jettySize=auto;html=1;" edge="1" parent="J86D7bzGNm8F8wSNdWVc-1" source="B_eBeXuSlpfEg5fjzPfb-6" target="B_eBeXuSlpfEg5fjzPfb-7">
          <mxGeometry relative="1" as="geometry" />
        </mxCell>
        <mxCell id="B_eBeXuSlpfEg5fjzPfb-13" style="edgeStyle=orthogonalEdgeStyle;rounded=0;orthogonalLoop=1;jettySize=auto;html=1;entryX=0.5;entryY=0;entryDx=0;entryDy=0;" edge="1" parent="J86D7bzGNm8F8wSNdWVc-1" source="B_eBeXuSlpfEg5fjzPfb-6" target="B_eBeXuSlpfEg5fjzPfb-12">
          <mxGeometry relative="1" as="geometry" />
        </mxCell>
        <mxCell id="B_eBeXuSlpfEg5fjzPfb-6" value="判断是否为中途入住？" style="rhombus;whiteSpace=wrap;html=1;" vertex="1" parent="J86D7bzGNm8F8wSNdWVc-1">
          <mxGeometry x="325.01" y="1200" width="150" height="80" as="geometry" />
        </mxCell>
        <mxCell id="B_eBeXuSlpfEg5fjzPfb-11" value="" style="edgeStyle=orthogonalEdgeStyle;rounded=0;orthogonalLoop=1;jettySize=auto;html=1;" edge="1" parent="J86D7bzGNm8F8wSNdWVc-1" source="B_eBeXuSlpfEg5fjzPfb-7" target="B_eBeXuSlpfEg5fjzPfb-9">
          <mxGeometry relative="1" as="geometry" />
        </mxCell>
        <mxCell id="B_eBeXuSlpfEg5fjzPfb-7" value="打开文件，最大化应用窗口" style="rounded=0;whiteSpace=wrap;html=1;" vertex="1" parent="J86D7bzGNm8F8wSNdWVc-1">
          <mxGeometry x="344.76" y="1340" width="110.49" height="50" as="geometry" />
        </mxCell>
        <mxCell id="fa-3IzdWcs99MUBIrT36-3" style="edgeStyle=orthogonalEdgeStyle;rounded=0;orthogonalLoop=1;jettySize=auto;html=1;entryX=0.5;entryY=1;entryDx=0;entryDy=0;" edge="1" parent="J86D7bzGNm8F8wSNdWVc-1" source="B_eBeXuSlpfEg5fjzPfb-9" target="fa-3IzdWcs99MUBIrT36-2">
          <mxGeometry relative="1" as="geometry" />
        </mxCell>
        <mxCell id="fa-3IzdWcs99MUBIrT36-7" value="" style="edgeStyle=orthogonalEdgeStyle;rounded=0;orthogonalLoop=1;jettySize=auto;html=1;" edge="1" parent="J86D7bzGNm8F8wSNdWVc-1" source="B_eBeXuSlpfEg5fjzPfb-9" target="fa-3IzdWcs99MUBIrT36-5">
          <mxGeometry relative="1" as="geometry" />
        </mxCell>
        <mxCell id="B_eBeXuSlpfEg5fjzPfb-9" value="点击费用明细表，进行截图，关闭应用" style="rounded=0;whiteSpace=wrap;html=1;" vertex="1" parent="J86D7bzGNm8F8wSNdWVc-1">
          <mxGeometry x="344.26" y="1460" width="110.49" height="50" as="geometry" />
        </mxCell>
        <mxCell id="B_eBeXuSlpfEg5fjzPfb-12" value="返回0" style="rounded=0;whiteSpace=wrap;html=1;" vertex="1" parent="J86D7bzGNm8F8wSNdWVc-1">
          <mxGeometry x="519.51" y="1340" width="110.49" height="50" as="geometry" />
        </mxCell>
        <mxCell id="B_eBeXuSlpfEg5fjzPfb-14" value="NO" style="text;html=1;strokeColor=none;fillColor=none;align=center;verticalAlign=middle;whiteSpace=wrap;rounded=0;" vertex="1" parent="J86D7bzGNm8F8wSNdWVc-1">
          <mxGeometry x="410" y="1290" width="40" height="20" as="geometry" />
        </mxCell>
        <mxCell id="B_eBeXuSlpfEg5fjzPfb-15" value="YES" style="text;html=1;strokeColor=none;fillColor=none;align=center;verticalAlign=middle;whiteSpace=wrap;rounded=0;" vertex="1" parent="J86D7bzGNm8F8wSNdWVc-1">
          <mxGeometry x="500" y="1210" width="40" height="20" as="geometry" />
        </mxCell>
        <mxCell id="fa-3IzdWcs99MUBIrT36-4" style="edgeStyle=orthogonalEdgeStyle;rounded=0;orthogonalLoop=1;jettySize=auto;html=1;entryX=0;entryY=0.5;entryDx=0;entryDy=0;" edge="1" parent="J86D7bzGNm8F8wSNdWVc-1" source="fa-3IzdWcs99MUBIrT36-2" target="B_eBeXuSlpfEg5fjzPfb-6">
          <mxGeometry relative="1" as="geometry">
            <Array as="points">
              <mxPoint x="225" y="1240" />
            </Array>
          </mxGeometry>
        </mxCell>
        <mxCell id="fa-3IzdWcs99MUBIrT36-2" value="条件为True" style="rounded=0;whiteSpace=wrap;html=1;" vertex="1" parent="J86D7bzGNm8F8wSNdWVc-1">
          <mxGeometry x="170" y="1330" width="110.49" height="50" as="geometry" />
        </mxCell>
        <mxCell id="fa-3IzdWcs99MUBIrT36-8" value="" style="edgeStyle=orthogonalEdgeStyle;rounded=0;orthogonalLoop=1;jettySize=auto;html=1;" edge="1" parent="J86D7bzGNm8F8wSNdWVc-1" source="fa-3IzdWcs99MUBIrT36-5" target="fa-3IzdWcs99MUBIrT36-6">
          <mxGeometry relative="1" as="geometry" />
        </mxCell>
        <mxCell id="fa-3IzdWcs99MUBIrT36-5" value="截图成功？" style="rhombus;whiteSpace=wrap;html=1;" vertex="1" parent="J86D7bzGNm8F8wSNdWVc-1">
          <mxGeometry x="324.51" y="1580" width="150" height="80" as="geometry" />
        </mxCell>
        <mxCell id="fa-3IzdWcs99MUBIrT36-12" value="" style="edgeStyle=orthogonalEdgeStyle;rounded=0;orthogonalLoop=1;jettySize=auto;html=1;" edge="1" parent="J86D7bzGNm8F8wSNdWVc-1" source="fa-3IzdWcs99MUBIrT36-6" target="fa-3IzdWcs99MUBIrT36-10">
          <mxGeometry relative="1" as="geometry" />
        </mxCell>
        <mxCell id="fa-3IzdWcs99MUBIrT36-6" value="打开应用，进行窗口最大化" style="rounded=0;whiteSpace=wrap;html=1;" vertex="1" parent="J86D7bzGNm8F8wSNdWVc-1">
          <mxGeometry x="344.26" y="1720" width="110.49" height="50" as="geometry" />
        </mxCell>
        <mxCell id="fa-3IzdWcs99MUBIrT36-14" value="" style="edgeStyle=orthogonalEdgeStyle;rounded=0;orthogonalLoop=1;jettySize=auto;html=1;" edge="1" parent="J86D7bzGNm8F8wSNdWVc-1" source="fa-3IzdWcs99MUBIrT36-10" target="fa-3IzdWcs99MUBIrT36-13">
          <mxGeometry relative="1" as="geometry" />
        </mxCell>
        <mxCell id="fa-3IzdWcs99MUBIrT36-25" style="edgeStyle=orthogonalEdgeStyle;rounded=0;orthogonalLoop=1;jettySize=auto;html=1;entryX=0.5;entryY=0;entryDx=0;entryDy=0;" edge="1" parent="J86D7bzGNm8F8wSNdWVc-1" source="fa-3IzdWcs99MUBIrT36-10" target="fa-3IzdWcs99MUBIrT36-24">
          <mxGeometry relative="1" as="geometry" />
        </mxCell>
        <mxCell id="fa-3IzdWcs99MUBIrT36-10" value="判断是否成功进入钉钉" style="rhombus;whiteSpace=wrap;html=1;" vertex="1" parent="J86D7bzGNm8F8wSNdWVc-1">
          <mxGeometry x="324.5" y="1820" width="150" height="80" as="geometry" />
        </mxCell>
        <mxCell id="fa-3IzdWcs99MUBIrT36-20" value="" style="edgeStyle=orthogonalEdgeStyle;rounded=0;orthogonalLoop=1;jettySize=auto;html=1;" edge="1" parent="J86D7bzGNm8F8wSNdWVc-1" source="fa-3IzdWcs99MUBIrT36-13" target="fa-3IzdWcs99MUBIrT36-19">
          <mxGeometry relative="1" as="geometry" />
        </mxCell>
        <mxCell id="fa-3IzdWcs99MUBIrT36-13" value="点击搜索相关员工姓名" style="rounded=0;whiteSpace=wrap;html=1;" vertex="1" parent="J86D7bzGNm8F8wSNdWVc-1">
          <mxGeometry x="344.26" y="1960" width="110.49" height="50" as="geometry" />
        </mxCell>
        <mxCell id="fa-3IzdWcs99MUBIrT36-15" value="YES" style="text;html=1;strokeColor=none;fillColor=none;align=center;verticalAlign=middle;whiteSpace=wrap;rounded=0;" vertex="1" parent="J86D7bzGNm8F8wSNdWVc-1">
          <mxGeometry x="400" y="1920" width="40" height="20" as="geometry" />
        </mxCell>
        <mxCell id="fa-3IzdWcs99MUBIrT36-22" style="edgeStyle=orthogonalEdgeStyle;rounded=0;orthogonalLoop=1;jettySize=auto;html=1;entryX=0.5;entryY=1;entryDx=0;entryDy=0;" edge="1" parent="J86D7bzGNm8F8wSNdWVc-1" source="fa-3IzdWcs99MUBIrT36-19" target="fa-3IzdWcs99MUBIrT36-21">
          <mxGeometry relative="1" as="geometry" />
        </mxCell>
        <mxCell id="fa-3IzdWcs99MUBIrT36-19" value="复制截图，点击发送" style="rounded=0;whiteSpace=wrap;html=1;" vertex="1" parent="J86D7bzGNm8F8wSNdWVc-1">
          <mxGeometry x="344.76" y="2090" width="110.49" height="50" as="geometry" />
        </mxCell>
        <mxCell id="fa-3IzdWcs99MUBIrT36-23" style="edgeStyle=orthogonalEdgeStyle;rounded=0;orthogonalLoop=1;jettySize=auto;html=1;entryX=1;entryY=0.5;entryDx=0;entryDy=0;" edge="1" parent="J86D7bzGNm8F8wSNdWVc-1" source="fa-3IzdWcs99MUBIrT36-21" target="fa-3IzdWcs99MUBIrT36-13">
          <mxGeometry relative="1" as="geometry">
            <Array as="points">
              <mxPoint x="555" y="1985" />
            </Array>
          </mxGeometry>
        </mxCell>
        <mxCell id="fa-3IzdWcs99MUBIrT36-21" value="循环遍历同房间号的人数" style="rounded=0;whiteSpace=wrap;html=1;" vertex="1" parent="J86D7bzGNm8F8wSNdWVc-1">
          <mxGeometry x="500" y="2020" width="110.49" height="50" as="geometry" />
        </mxCell>
        <mxCell id="fa-3IzdWcs99MUBIrT36-24" value="钉钉打开失败" style="rounded=0;whiteSpace=wrap;html=1;" vertex="1" parent="J86D7bzGNm8F8wSNdWVc-1">
          <mxGeometry x="160" y="1960" width="110.49" height="50" as="geometry" />
        </mxCell>
        <mxCell id="fa-3IzdWcs99MUBIrT36-26" value="NO" style="text;html=1;strokeColor=none;fillColor=none;align=center;verticalAlign=middle;whiteSpace=wrap;rounded=0;" vertex="1" parent="J86D7bzGNm8F8wSNdWVc-1">
          <mxGeometry x="250" y="1840" width="40" height="20" as="geometry" />
        </mxCell>
      </root>
    </mxGraphModel>
  </diagram>
  <diagram id="ntkEuht9zNUy_dCUfqcj" name="Halaman-4">
    <mxGraphModel dx="1215" dy="500" grid="1" gridSize="10" guides="1" tooltips="1" connect="1" arrows="1" fold="1" page="1" pageScale="1" pageWidth="827" pageHeight="1169" math="0" shadow="0">
      <root>
        <mxCell id="3cmlgeXyn3qmokWI7GCX-0" />
        <mxCell id="3cmlgeXyn3qmokWI7GCX-1" parent="3cmlgeXyn3qmokWI7GCX-0" />
        <mxCell id="0Yey2HL8TdjQLcjKsB6R-0" value="" style="edgeStyle=orthogonalEdgeStyle;rounded=0;orthogonalLoop=1;jettySize=auto;html=1;" edge="1" parent="3cmlgeXyn3qmokWI7GCX-1" source="0Yey2HL8TdjQLcjKsB6R-1" target="0Yey2HL8TdjQLcjKsB6R-3">
          <mxGeometry relative="1" as="geometry" />
        </mxCell>
        <mxCell id="0Yey2HL8TdjQLcjKsB6R-1" value="&lt;font style=&quot;font-size: 14px&quot;&gt;开始&lt;/font&gt;" style="strokeWidth=2;html=1;shape=mxgraph.flowchart.terminator;whiteSpace=wrap;" vertex="1" parent="3cmlgeXyn3qmokWI7GCX-1">
          <mxGeometry x="360" y="60" width="80" height="50" as="geometry" />
        </mxCell>
        <mxCell id="0Yey2HL8TdjQLcjKsB6R-2" value="" style="edgeStyle=orthogonalEdgeStyle;rounded=0;orthogonalLoop=1;jettySize=auto;html=1;" edge="1" parent="3cmlgeXyn3qmokWI7GCX-1" source="0Yey2HL8TdjQLcjKsB6R-3" target="0Yey2HL8TdjQLcjKsB6R-7">
          <mxGeometry relative="1" as="geometry" />
        </mxCell>
        <mxCell id="0Yey2HL8TdjQLcjKsB6R-3" value="输入文件名" style="rounded=0;whiteSpace=wrap;html=1;" vertex="1" parent="3cmlgeXyn3qmokWI7GCX-1">
          <mxGeometry x="349.63" y="150" width="100.25" height="40" as="geometry" />
        </mxCell>
        <mxCell id="0Yey2HL8TdjQLcjKsB6R-4" value="创建表格" style="rounded=0;whiteSpace=wrap;html=1;" vertex="1" parent="3cmlgeXyn3qmokWI7GCX-1">
          <mxGeometry x="349.88" y="230" width="100.25" height="40" as="geometry" />
        </mxCell>
        <mxCell id="0Yey2HL8TdjQLcjKsB6R-5" style="edgeStyle=orthogonalEdgeStyle;rounded=0;orthogonalLoop=1;jettySize=auto;html=1;exitX=1;exitY=0.5;exitDx=0;exitDy=0;entryX=0.5;entryY=0;entryDx=0;entryDy=0;" edge="1" parent="3cmlgeXyn3qmokWI7GCX-1" source="0Yey2HL8TdjQLcjKsB6R-7" target="0Yey2HL8TdjQLcjKsB6R-8">
          <mxGeometry relative="1" as="geometry" />
        </mxCell>
        <mxCell id="0Yey2HL8TdjQLcjKsB6R-6" value="" style="edgeStyle=orthogonalEdgeStyle;rounded=0;orthogonalLoop=1;jettySize=auto;html=1;" edge="1" parent="3cmlgeXyn3qmokWI7GCX-1" source="0Yey2HL8TdjQLcjKsB6R-7" target="0Yey2HL8TdjQLcjKsB6R-10">
          <mxGeometry relative="1" as="geometry" />
        </mxCell>
        <mxCell id="0Yey2HL8TdjQLcjKsB6R-7" value="文件名是否存在？" style="rhombus;whiteSpace=wrap;html=1;" vertex="1" parent="3cmlgeXyn3qmokWI7GCX-1">
          <mxGeometry x="339.51" y="300" width="120.49" height="60" as="geometry" />
        </mxCell>
        <mxCell id="0Yey2HL8TdjQLcjKsB6R-8" value="输入有误" style="rounded=0;whiteSpace=wrap;html=1;" vertex="1" parent="3cmlgeXyn3qmokWI7GCX-1">
          <mxGeometry x="509.75" y="420" width="100.25" height="40" as="geometry" />
        </mxCell>
        <mxCell id="0Yey2HL8TdjQLcjKsB6R-9" value="" style="edgeStyle=orthogonalEdgeStyle;rounded=0;orthogonalLoop=1;jettySize=auto;html=1;" edge="1" parent="3cmlgeXyn3qmokWI7GCX-1" source="0Yey2HL8TdjQLcjKsB6R-10" target="0Yey2HL8TdjQLcjKsB6R-12">
          <mxGeometry relative="1" as="geometry" />
        </mxCell>
        <mxCell id="0Yey2HL8TdjQLcjKsB6R-10" value="打开表格文件读取数据并分析，获取员工的房间号，姓名，入住时间" style="rounded=0;whiteSpace=wrap;html=1;" vertex="1" parent="3cmlgeXyn3qmokWI7GCX-1">
          <mxGeometry x="344.76" y="410" width="109.99" height="80" as="geometry" />
        </mxCell>
        <mxCell id="0Yey2HL8TdjQLcjKsB6R-11" value="" style="edgeStyle=orthogonalEdgeStyle;rounded=0;orthogonalLoop=1;jettySize=auto;html=1;" edge="1" parent="3cmlgeXyn3qmokWI7GCX-1" source="0Yey2HL8TdjQLcjKsB6R-12" target="0Yey2HL8TdjQLcjKsB6R-15">
          <mxGeometry relative="1" as="geometry" />
        </mxCell>
        <mxCell id="0Yey2HL8TdjQLcjKsB6R-12" value="打开表格文件读取数据并分析，获取员工的房间号，姓名，入住时间" style="rounded=0;whiteSpace=wrap;html=1;" vertex="1" parent="3cmlgeXyn3qmokWI7GCX-1">
          <mxGeometry x="344.76" y="544.5" width="109.99" height="80" as="geometry" />
        </mxCell>
        <mxCell id="0Yey2HL8TdjQLcjKsB6R-13" value="" style="edgeStyle=orthogonalEdgeStyle;rounded=0;orthogonalLoop=1;jettySize=auto;html=1;" edge="1" parent="3cmlgeXyn3qmokWI7GCX-1" source="0Yey2HL8TdjQLcjKsB6R-15" target="0Yey2HL8TdjQLcjKsB6R-17">
          <mxGeometry relative="1" as="geometry" />
        </mxCell>
        <mxCell id="0Yey2HL8TdjQLcjKsB6R-14" style="edgeStyle=orthogonalEdgeStyle;rounded=0;orthogonalLoop=1;jettySize=auto;html=1;entryX=0.5;entryY=0;entryDx=0;entryDy=0;" edge="1" parent="3cmlgeXyn3qmokWI7GCX-1" source="0Yey2HL8TdjQLcjKsB6R-15" target="0Yey2HL8TdjQLcjKsB6R-18">
          <mxGeometry relative="1" as="geometry" />
        </mxCell>
        <mxCell id="0Yey2HL8TdjQLcjKsB6R-15" value="遍历房间号，查看房间号是否相同？" style="rhombus;whiteSpace=wrap;html=1;" vertex="1" parent="3cmlgeXyn3qmokWI7GCX-1">
          <mxGeometry x="324.75" y="680" width="150" height="80" as="geometry" />
        </mxCell>
        <mxCell id="0Yey2HL8TdjQLcjKsB6R-16" value="" style="edgeStyle=orthogonalEdgeStyle;rounded=0;orthogonalLoop=1;jettySize=auto;html=1;" edge="1" parent="3cmlgeXyn3qmokWI7GCX-1" source="0Yey2HL8TdjQLcjKsB6R-17" target="0Yey2HL8TdjQLcjKsB6R-19">
          <mxGeometry relative="1" as="geometry" />
        </mxCell>
        <mxCell id="0Yey2HL8TdjQLcjKsB6R-17" value="进行姓名及入住时间的拼接" style="rounded=0;whiteSpace=wrap;html=1;" vertex="1" parent="3cmlgeXyn3qmokWI7GCX-1">
          <mxGeometry x="349.63" y="840" width="100.25" height="40" as="geometry" />
        </mxCell>
        <mxCell id="0Yey2HL8TdjQLcjKsB6R-18" value="设置变量存储房间号，姓名，注入时间" style="rounded=0;whiteSpace=wrap;html=1;" vertex="1" parent="3cmlgeXyn3qmokWI7GCX-1">
          <mxGeometry x="520" y="820" width="110" height="70" as="geometry" />
        </mxCell>
        <mxCell id="0Yey2HL8TdjQLcjKsB6R-19" value="筛选完相同的房间号，进行信息的录入，打印列表，进行备注" style="rounded=0;whiteSpace=wrap;html=1;" vertex="1" parent="3cmlgeXyn3qmokWI7GCX-1">
          <mxGeometry x="344.75" y="940" width="110" height="70" as="geometry" />
        </mxCell>
      </root>
    </mxGraphModel>
  </diagram>
  <diagram id="e4pSaRfthGFFXyHY6ls5" name="Halaman-5">
    <mxGraphModel dx="729" dy="300" grid="1" gridSize="10" guides="1" tooltips="1" connect="1" arrows="1" fold="1" page="1" pageScale="1" pageWidth="827" pageHeight="1169" math="0" shadow="0">
      <root>
        <mxCell id="VafuSld25ge-e095IXY8-0" />
        <mxCell id="VafuSld25ge-e095IXY8-1" parent="VafuSld25ge-e095IXY8-0" />
      </root>
    </mxGraphModel>
  </diagram>
</mxfile>
